<?xml version="1.0" encoding="UTF-8" standalone="no"?>
<!-- Created with Inkscape (http://www.inkscape.org/) -->

<svg
   width="512"
   height="512"
   viewBox="0 0 135.46667 135.46667"
   version="1.1"
   id="svg5"
   inkscape:version="1.2.1 (9c6d41e410, 2022-07-14)"
   sodipodi:docname="icon.svg"
   inkscape:export-filename="icon.png"
   inkscape:export-xdpi="96"
   inkscape:export-ydpi="96"
   xmlns:inkscape="http://www.inkscape.org/namespaces/inkscape"
   xmlns:sodipodi="http://sodipodi.sourceforge.net/DTD/sodipodi-0.dtd"
   xmlns="http://www.w3.org/2000/svg"
   xmlns:svg="http://www.w3.org/2000/svg">
  <sodipodi:namedview
     id="namedview7"
     pagecolor="#2b2d35"
     bordercolor="#eeeeee"
     borderopacity="1"
     inkscape:showpageshadow="0"
     inkscape:pageopacity="1"
     inkscape:pagecheckerboard="false"
     inkscape:deskcolor="#505050"
     inkscape:document-units="mm"
     showgrid="false"
     inkscape:zoom="0.64693623"
     inkscape:cx="-545.64884"
     inkscape:cy="68.012886"
     inkscape:window-width="2560"
     inkscape:window-height="1369"
     inkscape:window-x="1432"
     inkscape:window-y="626"
     inkscape:window-maximized="1"
     inkscape:current-layer="layer1"
     inkscape:export-bgcolor="#2b2d35ff" />
  <defs
     id="defs2" />
  <g
     inkscape:label="Layer 1"
     inkscape:groupmode="layer"
     id="layer1">
    <g
       aria-label="{   }"
       id="text5977"
       style="font-size:60.439px;opacity:1;fill:#21a1ff;stroke:#21a1ff;stroke-width:1.33846;stroke-linecap:round;stroke-linejoin:round">
      <path
         d="M 30.342605,98.718022 H 25.91592 q -5.28251,0 -8.587768,-2.951123 -3.275746,-2.921612 -3.275746,-8.469723 v -4.397173 q 0,-4.987398 -2.449432,-7.790965 Q 9.1535415,72.27596 4.1071212,72.27596 H 2.6020484 v -4.603752 h 1.5050728 q 5.0464203,0 7.4958528,-2.803567 2.449432,-2.833078 2.449432,-7.820476 v -4.397173 q 0,-5.548111 3.275746,-8.469723 3.305258,-2.951123 8.587768,-2.951123 h 4.426685 v 4.07255 h -3.364281 q -4.013527,0 -5.843223,1.859207 -1.800185,1.859208 -1.800185,5.99078 v 5.164465 q 0,4.102061 -2.272365,6.905628 -2.272365,2.774056 -6.315403,4.397173 v 0.70827 q 4.043038,1.623118 6.315403,4.426684 2.272365,2.774056 2.272365,6.876117 v 5.164465 q 0,4.131573 1.800185,5.99078 1.829696,1.859207 5.843223,1.859207 h 3.364281 z"
         id="path7473" />
      <path
         d="m 132.86462,72.27596 h -1.50507 q -5.04642,0 -7.49586,2.833078 -2.44943,2.803567 -2.44943,7.790965 v 4.397173 q 0,5.548111 -3.30526,8.469723 -3.27574,2.951123 -8.55825,2.951123 h -4.42669 v -4.07255 h 3.36428 q 4.01353,0 5.81371,-1.859207 1.8297,-1.859207 1.8297,-5.99078 V 81.63102 q 0,-4.102061 2.27237,-6.876117 2.27236,-2.803566 6.3154,-4.426684 v -0.70827 q -4.04304,-1.623117 -6.3154,-4.397173 -2.27237,-2.803567 -2.27237,-6.905628 v -5.164465 q 0,-4.131572 -1.8297,-5.99078 -1.80018,-1.859207 -5.81371,-1.859207 h -3.36428 v -4.07255 h 4.42669 q 5.28251,0 8.55825,2.951123 3.30526,2.921612 3.30526,8.469723 v 4.397173 q 0,4.987398 2.44943,7.820476 2.44944,2.803567 7.49586,2.803567 h 1.50507 z"
         id="path7475" />
    </g>
    <path
       style="fill:none;fill-opacity:1;stroke:#21a1ff;stroke-width:5.41682;stroke-linecap:round;stroke-linejoin:round;stroke-dasharray:none;stroke-opacity:1"
       d="m 82.481795,65.418904 c 0,-11.876835 0.592046,-25.457077 -14.748457,-25.438201 C 52.392835,39.99958 52.98488,53.528049 52.98488,65.418904 Z"
       id="path1-3"
       sodipodi:nodetypes="czcc" />
    <rect
       style="opacity:1;fill:#21a1ff;fill-opacity:1;stroke:#21a1ff;stroke-width:1.31407;stroke-linecap:round;stroke-linejoin:round;stroke-dasharray:none;stroke-dashoffset:0;stroke-opacity:1;paint-order:normal"
       id="rect441"
       width="45.159496"
       height="31.655558"
       x="45.153584"
       y="61.216648" />
    <circle
       style="opacity:1;fill:#2b2d35;fill-opacity:1;stroke:none;stroke-width:6.64946;stroke-linecap:round;stroke-linejoin:round;stroke-dasharray:none;stroke-dashoffset:0;stroke-opacity:1;paint-order:normal"
       id="path2717"
       cx="67.73333"
       cy="73.477547"
       r="5.4559155" />
    <path
       style="opacity:1;fill:#2b2d35;fill-opacity:1;stroke:#2b2d35;stroke-width:5.81643;stroke-linecap:round;stroke-linejoin:round;stroke-dasharray:none;stroke-dashoffset:0;stroke-opacity:1;paint-order:normal"
       d="M 67.733335,77.225012 V 85.00124"
       id="path4484" />
  </g>
</svg>
